<svg width="680" height="522" viewBox="0 0 680 522" fill="none" xmlns="http://www.w3.org/2000/svg">
<path d="M114.8 228.375V261V424.125C114.8 442.171 129.368 456.75 147.4 456.75H180C198.032 456.75 212.6 442.171 212.6 424.125V334.202C222.686 340.931 233.586 346.437 245.2 350.617V375.188C245.2 384.159 252.535 391.5 261.5 391.5C270.465 391.5 277.8 384.159 277.8 375.188V357.957C283.199 358.569 288.599 358.875 294.1 358.875C299.601 358.875 305.001 358.569 310.4 357.957V375.188C310.4 384.159 317.735 391.5 326.7 391.5C335.665 391.5 343 384.159 343 375.188V350.515C354.614 346.437 365.514 340.931 375.6 334.1V424.125C375.6 442.171 390.168 456.75 408.2 456.75H440.8C458.832 456.75 473.4 442.171 473.4 424.125V261L506 293.625V344.092C506 353.777 508.853 363.157 514.252 371.211L556.938 435.34C565.903 448.696 580.878 456.75 596.974 456.75C619.896 456.75 639.66 440.539 644.143 418.008L664.823 314.423C667.472 301.17 664.518 287.406 656.673 276.395L652.7 270.788V187.594C652.7 174.034 641.799 163.125 628.25 163.125C614.701 163.125 603.8 174.034 603.8 187.594V202.275L549.908 126.728C522.3 88.1895 477.883 65.25 430.511 65.25H294.1H277.8H212.6H163.7C96.1569 65.25 41.45 119.999 41.45 187.594V242.648C26.5763 254.679 17 273.03 17 293.625V311.569C17 319.725 23.52 326.25 31.67 326.25C64.0663 326.25 90.35 299.946 90.35 267.525V261V228.375V187.594C90.35 162.819 102.677 140.899 121.422 127.543C117.143 138.554 114.8 150.585 114.8 163.125V228.375ZM587.5 342.562C587.5 338.236 589.217 334.087 592.274 331.028C595.331 327.969 599.477 326.25 603.8 326.25C608.123 326.25 612.269 327.969 615.326 331.028C618.383 334.087 620.1 338.236 620.1 342.562C620.1 346.889 618.383 351.038 615.326 354.097C612.269 357.156 608.123 358.875 603.8 358.875C599.477 358.875 595.331 357.156 592.274 354.097C589.217 351.038 587.5 346.889 587.5 342.562ZM186.724 169.854C182.445 165.572 180 159.659 180 153.541C180 140.797 190.289 130.5 203.024 130.5H385.176C397.911 130.5 408.2 140.797 408.2 153.541C408.2 159.659 405.755 165.572 401.476 169.854L377.638 193.711C355.429 215.937 325.376 228.375 294.1 228.375C262.824 228.375 232.771 215.937 210.664 193.813L186.826 169.956L186.724 169.854Z" fill="white" stroke="black" stroke-width="20"/>
</svg>
